<svg id="labreport" xmlns="http://www.w3.org/2000/svg" viewBox="0 0 292 292">
  <path id="background" fill="#0e90c0" d="M145.6,0c-80.41,0 -145.6,65.2 -145.6,145.63c0,80.44 65.2,145.65 145.6,145.65c80.43,0 145.63,-65.21 145.63,-145.65c0,-80.43 -65.2,-145.63 -145.63,-145.63"/>
  <path fill="#fff" d="M117.4,168.37c0,-5.12 4.16,-9.25 9.26,-9.25c5.12,0 9.26,4.14 9.26,9.25c0,5.13 -4.14,9.28 -9.26,9.28c-5.11,0 -9.26,-4.15 -9.26,-9.28M125.4,118.36l9.09,-15.75l0,-28.86l29.31,0l0,28.86l9.08,15.75c4.56,7.87 10.48,18.16 16.48,28.53l-80.42,0c5.99,-10.37 11.93,-20.66 16.46,-28.53M174.14,99.85l0,-26.09l0.28,0c10.95,0 19.83,-7.91 19.83,-17.67c0,-9.76 -8.88,-17.67 -19.83,-17.67l-54,0c-10.95,0 -19.83,7.91 -19.83,17.67c0,9.76 8.87,17.67 19.83,17.67l3.74,0l0,26.09l-7.71,13.34c-9.48,16.43 -25,43.31 -34.48,59.74l-10.98,19.02c-3.1,5.37 -4.74,10.73 -4.74,15.86c0,3.14 0.63,6.18 1.92,8.93c1.92,4.13 5.31,7.46 9.54,9.61c4.24,2.17 9.31,3.22 15,3.23l112.89,0c7.58,-0.01 14.1,-1.9 18.93,-5.76c2.4,-1.93 4.33,-4.34 5.61,-7.08c1.28,-2.75 1.93,-5.79 1.92,-8.93c0,-5.13 -1.64,-10.49 -4.74,-15.86l-10.99,-19.02c-9.47,-16.42 -24.99,-43.3 -34.47,-59.74l-7.7,-13.34Z"/>
</svg>

