<svg xmlns="http://www.w3.org/2000/svg" width="17" height="16" viewBox="0 0 17 16" fill="none">
<path d="M9.42301 0.923077C9.42301 0.411538 9.01147 0 8.49994 0C7.98841 0 7.57687 0.411538 7.57687 0.923077V7.07692H1.42307C0.911535 7.07692 0.5 7.48846 0.5 8C0.5 8.51154 0.911535 8.92308 1.42307 8.92308H7.57687V15.0769C7.57687 15.5885 7.98841 16 8.49994 16C9.01147 16 9.42301 15.5885 9.42301 15.0769V8.92308H15.5768C16.0883 8.92308 16.4999 8.51154 16.4999 8C16.4999 7.48846 16.0883 7.07692 15.5768 7.07692H9.42301V0.923077Z" fill="white"/>
</svg>