<svg id="report" xmlns="http://www.w3.org/2000/svg" viewBox="0 0 288 288">
  <path id="background" fill="#474c54" d="M143.81,0c-79.42,0 -143.81,64.38 -143.81,143.81c0,79.44 64.38,143.82 143.81,143.82c79.42,0 143.81,-64.39 143.81,-143.82c-0,-79.43 -64.39,-143.81 -143.81,-143.81"/>
  <path fill="#fff" d="M188.88,81.07l-90.14,0c-2.38,0 -4.31,1.72 -4.31,3.84c0,2.12 1.93,3.84 4.31,3.84l90.14,0c2.38,0 4.3,-1.72 4.3,-3.84c0,-2.12 -1.92,-3.84 -4.3,-3.84"/>
  <path fill="#fff" d="M188.88,98.89l-90.14,0c-2.38,0 -4.31,1.71 -4.31,3.84c0,2.12 1.93,3.84 4.31,3.84l90.14,0c2.38,0 4.3,-1.72 4.3,-3.84c0,-2.13 -1.92,-3.84 -4.3,-3.84"/>
  <path fill="#fff" d="M145.74,124.36c2.38,0 4.31,-1.72 4.31,-3.83c0,-2.12 -1.93,-3.84 -4.31,-3.84l-47,0c-2.38,0 -4.3,1.72 -4.3,3.84c0,2.11 1.92,3.83 4.3,3.83l47,0Z"/>
  <path fill="#fff" d="M208.06,221.83c0,2.31 -1.87,4.17 -4.17,4.17l-120.15,0c-2.3,0 -4.18,-1.87 -4.18,-4.17l0,-156.02c0,-2.3 1.88,-4.18 4.18,-4.18l120.15,0c2.3,0 4.17,1.88 4.17,4.18l0,156.02ZM203.88,53.02l-120.15,0c-7.06,0 -12.78,5.72 -12.78,12.78l0,156.02c0,7.06 5.72,12.78 12.78,12.78l120.15,0c7.06,0 12.78,-5.72 12.78,-12.78l0,-156.02c0,-7.06 -5.72,-12.78 -12.78,-12.78"/>
  <path fill="#fff" d="M122.75,167.37h17.9v41.86h-17.9z"/>
  <path fill="#fff" d="M99.65,186.32h17.9v22.91h-17.9z"/>
  <path fill="#fff" d="M145.86,176.39h17.91v32.84h-17.91z"/>
  <path fill="#fff" d="M168.98,162.08h17.9v47.15h-17.9z"/>
  <path fill="#fff" d="M154.28,160.54l-23.11,-19.05l-33.7,32.35l4.22,4.41l29.79,-28.61l23.11,19.05l32.94,-31.59l-4.22,-4.4l-29.03,27.84Z"/>
</svg>
