<svg viewBox="0 0 292 292" version="1.1" xmlns="http://www.w3.org/2000/svg" xmlns:xlink="http://www.w3.org/1999/xlink">
    <g id="Page-1" stroke="none" stroke-width="1" fill="none" fill-rule="evenodd">
        <g id="immunizations">
            <path d="M145.63,-2.84217094e-14 C65.2,-2.84217094e-14 0,65.2 0,145.63 C0,226.07 65.2,291.28 145.63,291.28 C226.06,291.28 291.26,226.07 291.26,145.63 C291.26,65.2 226.06,-2.84217094e-14 145.63,-2.84217094e-14" id="background" fill="#3054A5" fill-rule="nonzero"></path>
            <path d="M197.11978,37.7935761 L197.381623,38.0096942 L243.102486,76.374054 C247.799291,80.3151412 248.02423,84.81633 243.777303,89.8776203 C239.603599,94.851647 235.247384,95.4369604 230.708659,91.6335605 L230.46961,91.4293291 L214.684717,110.241032 L237.313265,129.228639 C245.330865,135.956204 236.000124,147.238973 227.954658,140.870269 L227.711269,140.671852 L212.127928,127.595877 L123.611055,233.086178 C119.468352,238.023259 114.964724,238.522176 110.100172,234.582929 L109.848235,234.375217 L94.5566334,221.544039 L68.9882949,252.015199 L67.2926598,224.960953 L80.2399786,209.53094 L64.5148376,196.33598 C59.3405626,191.994247 58.7477203,187.359104 62.7363106,182.430551 L62.9430687,182.179694 L151.459942,76.6893919 C146.435251,72.4731754 141.379204,68.3109956 136.2918,64.2028525 C128.737006,58.10226 138.305031,46.5484907 145.786436,52.4344647 L146.012487,52.6181893 L168.963853,71.8766726 L184.748747,53.0649694 C179.431643,48.749482 178.896554,44.0610931 183.143481,38.9998028 C187.319626,34.0228673 191.978392,33.6207917 197.11978,37.7935761 Z M159.361857,83.3198861 L70.7832683,188.883738 L116.504132,227.248097 L138.334785,201.231338 L124.560663,189.673477 C116.651559,183.03695 125.814437,171.956435 133.750199,178.239948 L133.990282,178.435695 L147.764404,189.993556 L157.167266,178.787661 L150.889924,173.520346 C143.571138,167.379155 153.092938,155.456529 160.665086,161.412069 L160.893929,161.598036 L167.171271,166.865352 L176.262824,156.030462 L162.488702,144.472601 C155.169916,138.33141 164.788317,126.720013 172.154559,132.507379 L172.377069,132.688103 L186.151191,144.245964 L205.082721,121.684246 L159.361857,83.3198861 Z M192.439376,59.4084639 L176.482316,78.3769286 L206.864349,103.805572 L222.821409,84.8371072 L192.439376,59.4084639 Z" id="Syringe" fill="#FFFFFF"></path>
        </g>
    </g>
</svg>