<svg aria-hidden="true" width="100%" height="100%" viewBox="0 0 70 70" fill="currentColor" xmlns="http://www.w3.org/2000/svg"><title>Get Active</title><path d="M39.673,42.444l5.708,-6.592c0.425,0.697 0.782,1.614 0.782,2.787c0,0.373 -0.034,0.798 -0.136,1.24c-0.017,0.119 -0.187,0.577 -0.408,1.07c-0.339,0.748 -0.849,1.665 -1.257,2.362l-0.119,0.187l-4.57,-1.054Zm12.607,-31.109c-0.425,-0.832 -1.479,-1.172 -2.328,-0.747c-5.386,2.667 -8.614,5.606 -10.483,8.376c-1.869,2.769 -2.345,5.335 -2.328,7.085c0,0.577 0.051,1.053 0.102,1.444l-22.75,26.267c-0.951,1.104 -0.815,2.769 0.306,3.721c1.121,0.934 2.82,0.815 3.772,-0.289l11.74,-13.541c0,1.206 0.833,2.293 2.073,2.582l10.789,2.515l4.196,8.155c0.476,0.918 1.428,1.461 2.413,1.461c0.408,0 0.832,-0.085 1.223,-0.289c1.325,-0.662 1.869,-2.259 1.19,-3.584l-4.758,-9.26l-0.085,-0.136c0.153,-0.272 0.323,-0.578 0.51,-0.884c0.323,-0.577 0.646,-1.206 0.935,-1.818c0.288,-0.611 0.526,-1.189 0.662,-1.818c0.136,-0.662 0.204,-1.308 0.204,-1.919c0,-2.175 -0.782,-3.857 -1.546,-4.979c-0.561,-0.815 -1.121,-1.342 -1.41,-1.614l-0.102,-0.102l-5.879,-4.944c-0.034,-0.238 -0.068,-0.561 -0.068,-0.968c0,-1.19 0.289,-3.008 1.75,-5.199c1.478,-2.175 4.18,-4.741 9.158,-7.221c0.798,-0.425 1.138,-1.444 0.714,-2.294Z"></path><path d="M51.668,20.188c-2.192,-1.835 -5.471,-1.58 -7.323,0.577c-1.869,2.158 -1.597,5.386 0.578,7.204c2.191,1.835 5.453,1.58 7.322,-0.578c1.869,-2.157 1.597,-5.386 -0.577,-7.203Z"></path></svg>