<svg aria-hidden="true" width="100%" height="100%" viewBox="0 0 70 70" color="white" xmlns="http://www.w3.org/2000/svg"><title>Manage Blood Pressure</title><path d="M13.201,45.397l3.33,0c-0.187,-0.475 -0.289,-0.985 -0.289,-1.512l0,-25.01c0,-0.543 0.102,-1.053 0.289,-1.512l-3.33,0c-1.223,0 -2.209,0.986 -2.209,2.209l0,23.634c0,1.189 0.986,2.191 2.209,2.191Z"></path><path d="M32.928,38.161c-3.959,0 -7.17,-3.211 -7.17,-7.169c0,-3.959 3.211,-7.153 7.17,-7.153c3.959,0 7.153,3.211 7.153,7.153c0.017,3.958 -3.194,7.169 -7.153,7.169Zm22.478,-9.82c-2.226,0.782 -3.84,3.33 -3.84,6.337c0,3.008 1.631,5.539 3.84,6.338l0,6.643c0,5.335 -4.35,9.685 -9.685,9.685c-5.182,-0.001 -9.684,-4.163 -9.684,-9.685l0,-1.444l9.294,0c1.291,0 2.327,-1.053 2.327,-2.328l0,-25.009c0,-1.292 -1.036,-2.328 -2.327,-2.328l-24.806,0c-1.291,0 -2.328,1.053 -2.328,2.328l0,24.992c0,1.292 1.054,2.328 2.328,2.328l10.228,0l0,-3.585l2.379,0l0,5.046c0,7.17 5.81,12.59 12.607,12.59c6.949,0 12.589,-5.658 12.589,-12.59l0,-6.643c2.226,-0.799 3.84,-3.33 3.84,-6.338c0,-3.007 -1.614,-5.538 -3.84,-6.337c0,-1.121 -0.662,-1.716 -1.461,-1.716c-0.815,0 -1.461,0.629 -1.461,1.716Z"></path><path d="M36.104,26.879l-2.939,2.582c-1.037,-0.153 -1.784,0.68 -1.784,1.53l-2.566,2.293l1.835,1.835l2.26,-2.565c0.883,0 1.699,-0.714 1.563,-1.784l2.582,-2.94l-0.951,-0.951Z"></path></svg>