<!-- <svg focusable="false" aria-hidden="true" width="100%" height="100%" viewBox="0 0 70 70" color="white" ><title>Control Cholesterol</title><path d="M76.469,-6.803l-84.587,84.588c4.418,4.476 9.563,8.255 15.202,11.191c8.11,4.128 17.325,6.453 27.033,6.453c33.08,0 59.88,-26.801 59.88,-59.88c0.029,-16.54 -6.685,-31.51 -17.528,-42.352Z" style="fill: rgb(109, 33, 72); fill-rule: nonzero;"></path><path d="M30.574,29.342l-2.135,0l0,-3.343l-1.222,0l0,4.418l3.357,0l0,-1.075Zm-4.005,-1.164c0,-1.281 -0.913,-2.179 -2.489,-2.179l-1.708,0l0,4.418l1.679,0c1.59,0 2.518,-0.943 2.518,-2.239Zm-4.977,-2.179l-1.222,0l0,1.649l-1.576,0l0,-1.649l-1.222,0l0,4.418l1.222,0l0,-1.679l1.576,0l0,1.679l1.222,0l0,-4.418Zm-2.445,-6.553l2.342,0l0,5.125l4.241,0l0,-5.125l2.341,0l-4.462,-5.581l-4.462,5.581Zm4.506,16.14c-6.98,0 -12.251,-7.113 -8.688,-14.181c3.667,-7.289 5.67,-7.658 8.688,-15.109c2.887,7.451 5.037,7.834 8.689,15.109c3.548,7.068 -1.709,14.181 -8.689,14.181Zm0.442,-8.497l-0.5,0l0,2.238l0.5,0c0.736,0 1.222,-0.398 1.222,-1.119l0,-0.015c0,-0.692 -0.486,-1.104 -1.222,-1.104Zm27.655,17.302l-2.135,0l0,-3.342l-1.223,0l0,4.417l3.358,0l0,-1.075Zm-2.121,7.54l-2.356,0l0,-5.125l-4.241,0l0,5.125l-2.341,0l4.477,5.581l4.461,-5.581Zm-9.954,-6.465l3.357,0l0,-1.075l-2.135,0l0,-3.342l-1.222,0l0,4.417Zm3.887,0l1.679,0c1.591,0 2.518,-0.942 2.518,-2.223l0,-0.015c0,-1.281 -0.913,-2.179 -2.488,-2.179l-1.709,0l0,4.417Zm1.444,13.666c-6.98,0 -12.252,-7.113 -8.689,-14.181c3.667,-7.289 5.67,-7.657 8.689,-15.109c2.886,7.452 5.021,7.82 8.688,15.109c3.563,7.068 -1.708,14.181 -8.688,14.181Zm0.279,-14.755l-0.5,0l0,-2.253l0.5,0c0.737,0 1.223,0.412 1.223,1.119l0,0.015c0,0.721 -0.486,1.119 -1.223,1.119Z" class="icon-path"></path></svg> -->

<svg fill="#fff" aria-hidden="true" width="100%" height="100%" viewBox="0 0 70 70" xmlns="http://www.w3.org/2000/svg">
  <title>Control Cholesterol</title>
  <path d="M76.469,-6.803l-84.587,84.588c4.418,4.476 9.563,8.255 15.202,11.191c8.11,4.128 17.325,6.453 27.033,6.453c33.08,0 59.88,-26.801 59.88,-59.88c0.029,-16.54 -6.685,-31.51 -17.528,-42.352Z" style="fill: rgba(0,0,0,.3); fill-rule: nonzero;"></path>
  <path fill="#fff" d="M30.574,29.342l-2.135,0l0,-3.343l-1.222,0l0,4.418l3.357,0l0,-1.075Zm-4.005,-1.164c0,-1.281 -0.913,-2.179 -2.489,-2.179l-1.708,0l0,4.418l1.679,0c1.59,0 2.518,-0.943 2.518,-2.239Zm-4.977,-2.179l-1.222,0l0,1.649l-1.576,0l0,-1.649l-1.222,0l0,4.418l1.222,0l0,-1.679l1.576,0l0,1.679l1.222,0l0,-4.418Zm-2.445,-6.553l2.342,0l0,5.125l4.241,0l0,-5.125l2.341,0l-4.462,-5.581l-4.462,5.581Zm4.506,16.14c-6.98,0 -12.251,-7.113 -8.688,-14.181c3.667,-7.289 5.67,-7.658 8.688,-15.109c2.887,7.451 5.037,7.834 8.689,15.109c3.548,7.068 -1.709,14.181 -8.689,14.181Zm0.442,-8.497l-0.5,0l0,2.238l0.5,0c0.736,0 1.222,-0.398 1.222,-1.119l0,-0.015c0,-0.692 -0.486,-1.104 -1.222,-1.104Zm27.655,17.302l-2.135,0l0,-3.342l-1.223,0l0,4.417l3.358,0l0,-1.075Zm-2.121,7.54l-2.356,0l0,-5.125l-4.241,0l0,5.125l-2.341,0l4.477,5.581l4.461,-5.581Zm-9.954,-6.465l3.357,0l0,-1.075l-2.135,0l0,-3.342l-1.222,0l0,4.417Zm3.887,0l1.679,0c1.591,0 2.518,-0.942 2.518,-2.223l0,-0.015c0,-1.281 -0.913,-2.179 -2.488,-2.179l-1.709,0l0,4.417Zm1.444,13.666c-6.98,0 -12.252,-7.113 -8.689,-14.181c3.667,-7.289 5.67,-7.657 8.689,-15.109c2.886,7.452 5.021,7.82 8.688,15.109c3.563,7.068 -1.708,14.181 -8.688,14.181Zm0.279,-14.755l-0.5,0l0,-2.253l0.5,0c0.737,0 1.223,0.412 1.223,1.119l0,0.015c0,0.721 -0.486,1.119 -1.223,1.119Z"></path>
</svg>
