<svg aria-hidden="true" width="100%" height="100%" viewBox="0 0 70 70" xmlns="http://www.w3.org/2000/svg">
  <title>Eat Better</title>
  <path fill="#fff" d="M47.675 41.384c-.357.221-.867.068-1.122-.339-.255-.408-.17-.935.187-1.156.357-.221.867-.068 1.121.34.255.408.17.917-.186 1.155zm-.918 7.153c-.136-.068-.289-.153-.459-.272-.17-.102-.373-.237-.577-.39l-.323-.238-.323-.272-.34-.306-.34-.34-.339-.374-.323-.407c-.204-.272-.408-.578-.595-.867-.17-.306-.357-.611-.493-.917l-.118-.238-.102-.238-.187-.459c-.119-.306-.221-.611-.289-.883-.085-.289-.136-.561-.187-.816-.102-.509-.153-.934-.17-1.223-.017-.289 0-.459 0-.459 0 0 .102.68.391 1.648.068.238.153.51.255.782.102.272.204.56.322.849.119.289.272.595.425.884.153.306.323.595.493.883.17.289.357.578.561.833l.288.391.306.373.153.187.153.17.306.323c.204.204.408.391.595.561l.272.238.254.204c.17.118.306.237.425.322.238.17.374.272.374.272 0 0-.153-.102-.408-.221zm-4.366 2.719c-.136-.068-.289-.153-.459-.272-.17-.102-.374-.238-.578-.391l-.323-.238-.322-.272-.34-.305-.34-.34-.34-.374-.323-.408c-.204-.272-.407-.578-.594-.866-.17-.306-.357-.612-.51-.918l-.119-.238-.085-.255-.187-.458c-.119-.306-.221-.612-.289-.901-.085-.289-.153-.56-.203-.815-.102-.51-.153-.918-.17-1.224-.017-.288-.017-.458-.017-.458 0 0 .102.679.39 1.648.068.238.153.509.255.781.102.272.221.561.34.85.119.289.272.594.425.883.153.289.323.595.493.884.169.289.356.577.56.832l.306.391.306.374.306.34.305.322c.204.204.408.391.595.561l.272.238.255.204c.17.119.306.238.425.323.237.17.373.272.373.272 0 0-.153-.034-.407-.17zm-5.454 1.274l-.306-.153-.374-.238-.204-.136-.204-.17c-.136-.119-.305-.238-.441-.407l-.221-.238-.102-.119-.102-.136-.204-.272-.187-.289-.17-.289-.153-.288-.068-.153-.068-.153-.119-.289c-.068-.187-.135-.391-.169-.561l-.068-.272-.051-.255-.068-.441-.017-.34v-.289l.017.068.051.204.085.323.186.458c.051.153.102.306.17.476.068.17.136.34.221.527.085.17.17.357.272.544l.136.271.17.272.17.272.17.255c.119.17.238.323.373.476l.085.119.102.102.187.203.357.357.17.153.153.136.255.204.221.204c0-.017-.085-.051-.255-.136zm-4.146.883l-.153-.068-.204-.118-.221-.17-.237-.221-.221-.255-.204-.289-.085-.153-.068-.153-.136-.306-.085-.305-.051-.272c-.034-.17-.034-.306-.034-.408l.017-.153.051.153.119.374.102.255.119.271.136.272.153.272.17.272.186.255.187.221.187.187.17.153.136.118.119.102-.153-.034zm7.68-14.968c-.595-.391-1.58-.934-2.226-.799-.951.187-4.299 3.11-6.49 7.527-.629 1.274-.782 2.107-.68 2.617-.595 1.172-1.172 2.344-1.869 3.483-2.327 3.772-7.238 2.514-7.238 2.514l3.959 6.338s1.002-4.979 5.42-5.42c.595-.051 1.189-.085 1.784-.119l.255.068c3.891.985 7.425.56 8.036.102.255-.204.425-.629.51-1.054.968-.305 1.971-.73 2.99-1.325 4.927-2.837 6.575-7.544 7.085-12.997-3.959-1.496-7.815-2.175-11.536-.935zm-27.304-12.454c-2.565.051-4.655 2.124-5.691 4.469-1.343 3.075-.85 6.575.051 9.548l.001.017c.73 2.498 2.123 4.605 3.517 6.558 1.002 1.394 2.718 1.733 4.162 1.258 1.342-.306 2.447-.867 3.432-.527l.068.017c.68.153 1.495.476 2.345.612.866.152 1.835.118 2.701-.51l.017-.017c1.376-1.071 2.09-2.685 2.906-3.942l.017-.017c1.495-2.582 2.293-5.624 2.378-8.648.119-3.228-1.359-6.541-4.043-8.104-2.09-1.207-4.486-.68-6.406.272-.713.356-1.563 0-2.497-.425l-.034-.017c-.833-.323-1.733-.527-2.651-.544l-.017 0-.255.001zm9.005-7.747c-3.67 1.002-5.233 4.009-5.063 7.034.017.305.255.577.544.611 1.716.187 3.228-.713 4.23-2.073 1.02-1.359 1.58-3.16 1.496-4.978-.017-.323-.289-.628-.595-.628-.204.017-.425 0-.612.034zm20.219 7.798l.034-.017.356-.136-.39.153zm-5.913-.357l.034-.203c.408-1.818 2.022-3.059 3.126-4.401l.001-.017c1.139-1.087 2.532-2.396 4.537-2.447 1.189 0 2.089.765 2.718 1.496-.17.509-.374 1.002-.629 1.478l-.051.153-.068.119c-.611 1.002-1.41 1.936-2.344 2.701l-.051.034-.221.17c-.221.17-.459.323-.697.476l-.051.034c-.169.119-.373.204-.594.288-.153.051-.221.102-.255.136l-.034.017-.102.136.017.153c.085.17.136.34.221.493l.051.085.17.102.034.051.085-.051.17-.085c.17-.085.34-.17.476-.272l.034-.017c.901-.561 1.564-1.24 2.21-1.867l.017-.017c.578-.578 1.107-1.189 1.615-1.835l.017-.017c.391-.425.782-.85 1.207-1.26 0-.017.017-.017.034-.034 1.189-1.207 2.464-2.29 3.51-3.674l.017-.017c1.67-2.227 2.496-4.979 3.075-7.774.153-.714-.34-1.478-1.087-1.527-3.068-.272-5.595.89-7.528 2.396-.459.391-.833.816-1.21 1.275l-.034.034c-.17.204-.34.391-.51.578-1.812-1.652-4.885-1.275-7.378-.408-.51.17-.978.391-1.41.68-2.781 1.854-4.617 4.851-5.594 7.979l-.034.119c-.374 1.189-1.242 4.269.34 4.076z" />
</svg>
