<svg fill="#fff" aria-hidden="true" width="100%" height="100%" viewBox="0 0 70 70" color="white" xmlns="http://www.w3.org/2000/svg"><title>Lose Weight</title><path d="M35.764,19.882l-0.085,0c-1.223,0 -2.226,1.002 -2.226,2.226c0,1.223 1.003,2.225 2.226,2.225c1.223,0 2.226,-1.002 2.226,-2.226l0,-0.085l4.162,-6.082c0.255,-0.374 0.153,-0.459 -0.203,-0.221l-6.1,4.163Z"></path><path d="M35.663,32.878c-5.947,0 -10.772,-4.842 -10.772,-10.772c0,-5.946 4.842,-10.772 10.772,-10.772c5.946,0 10.772,4.843 10.772,10.772c0.017,5.93 -4.826,10.772 -10.772,10.772Zm1.206,19.012l-2.413,0l0,-15.036l2.413,0l0,15.036Zm17.959,-33.352l-3.636,0c-1.614,-7.085 -7.952,-12.386 -15.529,-12.386c-7.578,0 -13.915,5.301 -15.529,12.386l-3.194,0c-2.498,0 -4.214,2.022 -3.806,4.486l4.689,28.391c0.408,2.463 2.786,4.485 5.284,4.485l25.553,0c2.498,0 4.877,-2.022 5.284,-4.486l4.69,-28.39c0.408,-2.464 -1.309,-4.486 -3.806,-4.486Z"></path></svg>