<svg fill="#fff" aria-hidden="true" width="100%" height="100%" viewBox="0 0 30 30" xmlns="http://www.w3.org/2000/svg"><path d="M26.284,12.811C26.374,12.567 26.422,12.312 26.422,12.048C26.422,10.387 24.533,9.04 22.202,9.04C21.963,9.04 21.73,9.056 21.503,9.082C20.61,6.722 17.818,5 14.51,5C10.974,5 8.026,6.968 7.36,9.58C6.318,9.591 5.462,10.206 5.339,10.998C3.23,11.329 1.642,12.785 1.642,14.531C1.642,15.814 2.498,16.938 3.787,17.578C3.735,17.747 3.707,17.924 3.707,18.107C3.707,19.347 4.993,20.353 6.58,20.353C6.91,20.353 7.227,20.309 7.522,20.228C8.017,21.589 9.819,22.598 11.967,22.598C13.039,22.598 14.024,22.346 14.803,21.925C15.466,22.779 16.781,23.361 18.296,23.361C20.477,23.361 22.246,22.156 22.247,20.668C22.404,20.697 22.566,20.712 22.73,20.712C24.372,20.712 25.703,19.245 25.703,17.435C25.703,17.335 25.699,17.237 25.691,17.139C25.783,17.146 25.878,17.149 25.973,17.149C27.51,17.149 28.756,16.175 28.756,14.973C28.756,13.854 27.675,12.932 26.284,12.811Z"></path><path d="M23.742,24.487C24.548,24.487 25.202,23.833 25.202,23.027C25.202,22.221 24.548,21.567 23.742,21.567C22.935,21.567 22.282,22.221 22.282,23.027C22.282,23.833 22.935,24.487 23.742,24.487Z"></path><path d="M25.699,25.555C26.071,25.555 26.372,25.253 26.372,24.881C26.372,24.51 26.071,24.208 25.699,24.208C25.327,24.208 25.025,24.51 25.025,24.881C25.025,25.253 25.327,25.555 25.699,25.555Z" ></path><path d="M9.558,16.372L12.229,13.201L12.229,12.263L7.666,12.263L7.666,13.451L10.269,13.451L7.598,16.621L7.598,17.56L12.343,17.56L12.343,16.372L9.558,16.372Z" style="fill: rgb(111, 207, 190);"></path><path d="M14.676,14.217L17.347,11.046L17.347,10.108L12.784,10.108L12.784,11.296L15.387,11.296L12.716,14.466L12.716,15.405L17.46,15.405L17.46,14.217L14.676,14.217Z" style="fill: rgb(111, 207, 190);"></path><path d="M19.883,16.82L22.554,13.65L22.554,12.711L17.991,12.711L17.991,13.899L20.594,13.899L17.923,17.07L17.923,18.008L22.668,18.008L22.668,16.82L19.883,16.82Z"  style="fill: rgb(111, 207, 190);"></path></svg>