<svg fill="#fff" aria-hidden="true" width="100%" height="100%" viewBox="0 0 70 70" color="white" xmlns="http://www.w3.org/2000/svg"><title>Stop Smoking</title><path  d="M38.16,28.067l6.151,0c3.16,0 5.742,2.582 5.742,5.743l1.495,0c0,-3.993 -3.245,-7.238 -7.237,-7.238l-6.151,0c-0.594,0 -1.087,-0.493 -1.087,-1.088l-1.495,0c0,1.428 1.155,2.583 2.582,2.583Z"></path><path d="M44.328,28.899l-6.151,0c-1.886,0 -3.415,-1.529 -3.415,-3.415l-1.495,0c0,2.702 2.209,4.911 4.91,4.911l6.151,0c1.886,0 3.415,1.529 3.415,3.415l1.495,0c-0.017,-2.719 -2.209,-4.911 -4.91,-4.911Z"></path><rect x="50.053" y="34.645" width="1.495" height="4.995"></rect><path  d="M29.087,34.645l-10.823,-0.001l0,4.996l15.818,0l-4.995,-4.996Z"></path><path d="M49.221,34.645l-12.216,-0.001l4.995,4.996l7.221,0l0,-4.996Z"></path><path d="M52.654,52.48l-34.627,-34.626c4.401,-4.248 10.398,-6.848 16.974,-6.848c13.507,0 24.5,10.993 24.5,24.5c0,6.576 -2.617,12.573 -6.847,16.974Zm-42.153,-16.974c0,-5.912 2.106,-11.349 5.623,-15.597l34.474,34.474c-4.231,3.5 -9.668,5.624 -15.597,5.624c-13.508,-0.001 -24.5,-10.993 -24.5,-24.501Zm24.5,-27.303c-15.054,0 -27.304,12.25 -27.304,27.304c0,15.053 12.25,27.303 27.304,27.303c15.053,0 27.303,-12.25 27.303,-27.304c0,-15.053 -12.25,-27.303 -27.303,-27.303Z"></path></svg>