<svg width="24" height="24" viewBox="0 0 24 24" fill="none" xmlns="http://www.w3.org/2000/svg">
<rect width="24" height="24" rx="1.8" fill="#00B0B9"/>
<g clip-path="url(#clip0_442_17951)">
<path d="M18.9642 13.9452C19.8722 13.9452 20.6082 13.2091 20.6082 12.3011C20.6082 11.3931 19.8722 10.657 18.9642 10.657C18.0562 10.657 17.3201 11.3931 17.3201 12.3011C17.3201 13.2091 18.0562 13.9452 18.9642 13.9452Z" fill="white"/>
<path d="M15.2709 13.7635C16.0785 13.7635 16.7332 13.1088 16.7332 12.3012C16.7332 11.4936 16.0785 10.8389 15.2709 10.8389C14.4633 10.8389 13.8086 11.4936 13.8086 12.3012C13.8086 13.1088 14.4633 13.7635 15.2709 13.7635Z" fill="white"/>
<path d="M15.2709 10.0526C16.0785 10.0526 16.7332 9.39786 16.7332 8.59025C16.7332 7.78263 16.0785 7.12793 15.2709 7.12793C14.4633 7.12793 13.8086 7.78263 13.8086 8.59025C13.8086 9.39786 14.4633 10.0526 15.2709 10.0526Z" fill="white"/>
<path d="M15.2709 17.4547C16.0785 17.4547 16.7332 16.8 16.7332 15.9923C16.7332 15.1847 16.0785 14.53 15.2709 14.53C14.4633 14.53 13.8086 15.1847 13.8086 15.9923C13.8086 16.8 14.4633 17.4547 15.2709 17.4547Z" fill="white"/>
<path d="M11.577 13.5796C12.2839 13.5796 12.857 13.0066 12.857 12.2997C12.857 11.5928 12.2839 11.0198 11.577 11.0198C10.8702 11.0198 10.2971 11.5928 10.2971 12.2997C10.2971 13.0066 10.8702 13.5796 11.577 13.5796Z" fill="white"/>
<path d="M11.577 9.87014C12.2839 9.87014 12.857 9.2971 12.857 8.59022C12.857 7.88334 12.2839 7.3103 11.577 7.3103C10.8702 7.3103 10.2971 7.88334 10.2971 8.59022C10.2971 9.2971 10.8702 9.87014 11.577 9.87014Z" fill="white"/>
<path d="M11.577 17.2898C12.2839 17.2898 12.857 16.7168 12.857 16.0099C12.857 15.303 12.2839 14.73 11.577 14.73C10.8702 14.73 10.2971 15.303 10.2971 16.0099C10.2971 16.7168 10.8702 17.2898 11.577 17.2898Z" fill="white"/>
<path d="M11.577 21C12.2839 21 12.857 20.427 12.857 19.7201C12.857 19.0132 12.2839 18.4402 11.577 18.4402C10.8702 18.4402 10.2971 19.0132 10.2971 19.7201C10.2971 20.427 10.8702 21 11.577 21Z" fill="white"/>
<path d="M11.577 6.15994C12.2839 6.15994 12.857 5.5869 12.857 4.88002C12.857 4.17314 12.2839 3.6001 11.577 3.6001C10.8702 3.6001 10.2971 4.17314 10.2971 4.88002C10.2971 5.5869 10.8702 6.15994 11.577 6.15994Z" fill="white"/>
<path d="M7.88317 13.3972C8.48931 13.3972 8.98069 12.9058 8.98069 12.2997C8.98069 11.6935 8.48931 11.2021 7.88317 11.2021C7.27702 11.2021 6.78564 11.6935 6.78564 12.2997C6.78564 12.9058 7.27702 13.3972 7.88317 13.3972Z" fill="white"/>
<path d="M7.88317 17.0898C8.48931 17.0898 8.98069 16.5984 8.98069 15.9923C8.98069 15.3862 8.48931 14.8948 7.88317 14.8948C7.27702 14.8948 6.78564 15.3862 6.78564 15.9923C6.78564 16.5984 7.27702 17.0898 7.88317 17.0898Z" fill="white"/>
<path d="M7.88317 9.70408C8.48931 9.70408 8.98069 9.2127 8.98069 8.60656C8.98069 8.00041 8.48931 7.50903 7.88317 7.50903C7.27702 7.50903 6.78564 8.00041 6.78564 8.60656C6.78564 9.2127 7.27702 9.70408 7.88317 9.70408Z" fill="white"/>
<path d="M4.51523 13.214C5.02064 13.214 5.43035 12.8043 5.43035 12.2989C5.43035 11.7935 5.02064 11.3838 4.51523 11.3838C4.00981 11.3838 3.6001 11.7935 3.6001 12.2989C3.6001 12.8043 4.00981 13.214 4.51523 13.214Z" fill="white"/>
</g>
<defs>
<clipPath id="clip0_442_17951">
<rect width="17.0088" height="17.4" fill="white" transform="translate(3.6001 3.6001)"/>
</clipPath>
</defs>
</svg>
