<svg width="192" height="192" viewBox="0 0 192 192" fill="none" xmlns="http://www.w3.org/2000/svg">
<path d="M96 163C83 163 69.9 158.1 60 148.2L27 115.4C17.4 105.8 12 93.1004 12 79.6004C12 66.1004 17.3 53.3004 27 43.8004C46.8 24.1004 79.1 24.1004 99 43.8004L82 60.8004C71.5 50.4004 54.3 50.4004 43.8 60.8004C38.7 65.8004 35.9 72.5004 35.9 79.6004C35.9 86.7004 38.7 93.4004 43.8 98.4004L76.9 131.2C87.4 141.6 104.6 141.6 115.1 131.2L132 148.2C122.1 158.1 109 163 96 163Z" fill="white"/>
<path d="M96 163C83 163 69.9 158.1 60 148.2C50.4 138.6 45 125.9 45 112.4C45 98.9004 50.3 86.1004 60 76.6004L93 43.8004C112.8 24.1004 145.1 24.1004 165 43.8004C174.6 53.4004 180 66.1004 180 79.6004C180 93.1004 174.7 105.9 165 115.4L132 148.2C122.1 158.1 109 163 96 163ZM129.1 53.0004C122.2 53.0004 115.3 55.6004 110 60.8004L76.9 93.6004C71.8 98.6004 69 105.3 69 112.4C69 119.5 71.8 126.2 76.9 131.2C87.4 141.6 104.6 141.6 115.1 131.2L148.2 98.4004C153.3 93.4004 156.1 86.7004 156.1 79.6004C156.1 72.5004 153.3 65.8004 148.2 60.8004C142.9 55.6004 136 53.0004 129.1 53.0004Z" fill="white"/>
<path d="M128.2 99.4992C138.694 99.4992 147.2 91.0374 147.2 80.5992C147.2 70.161 138.694 61.6992 128.2 61.6992C117.707 61.6992 109.2 70.161 109.2 80.5992C109.2 91.0374 117.707 99.4992 128.2 99.4992Z" fill="white"/>
</svg>
