<?xml version="1.0" encoding="UTF-8"?>
<svg xmlns="http://www.w3.org/2000/svg" xmlns:xlink="http://www.w3.org/1999/xlink" width="512px" height="411px" viewBox="0 0 511 411" version="1.1">
<g id="surface1">
<path style=" stroke:none;fill-rule:nonzero;fill:rgb(85.09804%,85.09804%,85.09804%);fill-opacity:0.501961;" d="M 45.246094 264.082031 C -15.097656 203.675781 -15.097656 105.734375 45.246094 45.328125 C 105.589844 -15.082031 203.429688 -15.082031 263.773438 45.328125 L 364.652344 146.3125 C 424.996094 206.71875 424.996094 304.660156 364.652344 365.066406 C 304.308594 425.472656 206.46875 425.472656 146.125 365.066406 Z M 45.246094 264.082031 "/>
<path style=" stroke:none;fill-rule:evenodd;fill:rgb(0%,19.215687%,26.666668%);fill-opacity:1;" d="M 313.722656 197.292969 L 212.84375 96.308594 C 180.625 64.058594 128.390625 64.058594 96.171875 96.308594 C 63.957031 128.558594 63.957031 180.847656 96.171875 213.101562 L 197.054688 314.085938 C 229.269531 346.339844 281.507812 346.339844 313.722656 314.085938 C 345.945312 281.835938 345.945312 229.542969 313.722656 197.292969 Z M 45.246094 45.328125 C -15.097656 105.734375 -15.097656 203.675781 45.246094 264.082031 L 146.125 365.066406 C 206.472656 425.472656 304.308594 425.472656 364.652344 365.066406 C 424.996094 304.660156 424.996094 206.71875 364.652344 146.3125 L 263.773438 45.328125 C 203.425781 -15.082031 105.585938 -15.082031 45.246094 45.328125 Z M 45.246094 45.328125 "/>
<path style=" stroke:none;fill-rule:nonzero;fill:rgb(100%,100%,100%);fill-opacity:1;" d="M 94.125 94.253906 C 126.769531 61.578125 179.699219 61.578125 212.34375 94.253906 L 311.175781 193.191406 C 343.824219 225.871094 343.824219 278.855469 311.175781 311.535156 C 278.53125 344.214844 225.601562 344.214844 192.957031 311.535156 L 94.125 212.597656 C 61.476562 179.917969 61.476562 126.933594 94.125 94.253906 Z M 94.125 94.253906 "/>
<path style=" stroke:none;fill-rule:nonzero;fill:rgb(25.882354%,52.156866%,95.686275%);fill-opacity:1;" d="M 247.199219 45.898438 C 307.542969 -14.507812 405.382812 -14.507812 465.726562 45.898438 C 526.074219 106.304688 526.074219 204.246094 465.726562 264.65625 L 364.847656 365.640625 C 304.503906 426.046875 206.664062 426.046875 146.316406 365.640625 C 85.972656 305.234375 85.972656 207.292969 146.316406 146.882812 Z M 247.199219 45.898438 "/>
<path style=" stroke:none;fill-rule:evenodd;fill:rgb(25.882354%,52.156866%,95.686275%);fill-opacity:1;" d="M 313.917969 314.660156 L 414.800781 213.671875 C 447.015625 181.421875 447.015625 129.128906 414.800781 96.878906 C 382.578125 64.628906 330.34375 64.628906 298.128906 96.878906 L 197.246094 197.867188 C 165.03125 230.117188 165.03125 282.40625 197.246094 314.660156 C 229.464844 346.910156 281.699219 346.910156 313.917969 314.660156 Z M 465.726562 45.898438 C 405.382812 -14.507812 307.542969 -14.507812 247.199219 45.898438 L 146.316406 146.882812 C 85.972656 207.292969 85.972656 305.234375 146.316406 365.640625 C 206.664062 426.046875 304.503906 426.046875 364.847656 365.640625 L 465.726562 264.65625 C 526.074219 204.246094 526.074219 106.304688 465.726562 45.898438 Z M 465.726562 45.898438 "/>
<path style=" stroke:none;fill-rule:nonzero;fill:rgb(100%,100%,100%);fill-opacity:1;" d="M 196.367188 313.730469 C 163.722656 281.050781 163.722656 228.066406 196.367188 195.386719 L 295.203125 96.449219 C 327.847656 63.769531 380.773438 63.769531 413.421875 96.449219 C 446.066406 129.128906 446.066406 182.113281 413.421875 214.792969 L 314.585938 313.730469 C 281.941406 346.410156 229.015625 346.410156 196.367188 313.730469 Z M 196.367188 313.730469 "/>
<path style=" stroke:none;fill-rule:nonzero;fill:rgb(25.882354%,52.156866%,95.686275%);fill-opacity:1;" d="M 411.335938 159.003906 C 411.335938 191.355469 385.136719 217.582031 352.816406 217.582031 C 320.496094 217.582031 294.296875 191.355469 294.296875 159.003906 C 294.296875 126.652344 320.496094 100.421875 352.816406 100.421875 C 385.136719 100.421875 411.335938 126.648438 411.335938 159.003906 Z M 411.335938 159.003906 "/>
</g>
</svg>
