<svg id="medication" xmlns="http://www.w3.org/2000/svg" viewBox="0 0 292 292">
  <path id="background" fill="#f7931d" d="M145.63,0c-80.43,0 -145.63,65.2 -145.63,145.63c0,80.44 65.2,145.65 145.63,145.65c80.43,0 145.63,-65.21 145.63,-145.65c0,-80.43 -65.2,-145.63 -145.63,-145.63"/>
  <path fill="#fff" d="M175.55,105.22c3.91,4.42 7.55,8.5 10.46,11.75c1.46,1.62 2.74,3.04 3.79,4.18c1.06,1.14 1.87,2.01 2.48,2.62c4.76,4.78 7.69,11.31 7.69,18.58l0,74.84c-0,7.28 -2.93,13.81 -7.69,18.58c-4.77,4.76 -11.3,7.68 -18.57,7.68l-26.32,0l-26.31,0c-7.26,0 -13.8,-2.92 -18.57,-7.68c-4.76,-4.77 -7.69,-11.31 -7.69,-18.58l0,-57.96l0,-16.89c0,-7.27 2.93,-13.8 7.69,-18.58c0.61,-0.61 1.41,-1.48 2.47,-2.62c3.9,-4.24 11.04,-12.28 18.57,-20.81l47.67,0c1.45,1.65 2.9,3.29 4.31,4.88M101.32,110.24c-1.44,1.61 -2.7,3 -3.72,4.09c-1,1.11 -1.79,1.92 -2.19,2.33c-6.56,6.56 -10.63,15.67 -10.63,25.69l0,74.84c-0.01,10.02 4.07,19.13 10.63,25.68c6.57,6.57 15.67,10.65 25.68,10.64l52.63,0c10.02,0.01 19.12,-4.07 25.67,-10.64c6.56,-6.56 10.64,-15.66 10.64,-25.68l0,-57.96l0,-16.89c0,-10.02 -4.07,-19.13 -10.64,-25.69c-0.39,-0.4 -1.17,-1.22 -2.19,-2.33c-4.34,-4.72 -13.04,-14.53 -21.7,-24.37l0,-1.02l-0.02,0l0,-21.82l8.16,0c8.98,0 16.27,-8.34 16.27,-18.64c-0.02,-10.27 -7.3,-18.61 -16.28,-18.63l-72.33,0.03c-9,-0.02 -16.28,8.32 -16.28,18.61c0,10.3 7.28,18.64 16.27,18.64l8.13,0l0.02,22.72c-2.6,2.95 -5.21,5.91 -7.7,8.72c-3.9,4.4 -7.52,8.47 -10.41,11.68"/>
  <path fill="#fff" d="M172.37,181.84l0,4.59c0,2.11 -1.48,3.82 -3.3,3.82l-15.03,0l0,15.03c0,1.82 -1.71,3.3 -3.82,3.3l-6.75,0c-2.11,0 -3.81,-1.48 -3.81,-3.3l0,-15.03l-15.04,0c-1.82,0 -3.3,-1.71 -3.3,-3.82l0,-0.78l0,-3.81l0,-2.16c0,-2.1 1.48,-3.81 3.3,-3.81l15.04,0l0,-15.04c0,-1.82 1.71,-3.29 3.81,-3.29l6.75,0c2.11,0 3.82,1.48 3.82,3.29l0,15.04l15.03,0c1.83,0 3.3,1.71 3.3,3.81l0,2.16ZM107.23,219.96l79.8,0l0,-76.54l-79.8,0l0,76.54Z"/>
</svg>

