<svg id="procedure" xmlns="http://www.w3.org/2000/svg" viewBox="0 0 292 292">
  <path id="background" fill="#4eb848" d="M145.63,0c-80.43,0 -145.63,65.2 -145.63,145.63c0,80.44 65.2,145.64 145.63,145.64c80.43,0 145.63,-65.21 145.63,-145.64c0,-80.43 -65.2,-145.63 -145.63,-145.63"/>
  <path fill="#fff" d="M178.18,61.38c12.86,-12.86 33.78,-12.86 46.63,0l4.26,4.26c12.86,12.86 12.86,33.78 0,46.64l-18.45,18.45l7.24,7.24l0.01,0l18.44,-18.44c16.84,-16.84 16.84,-44.26 0,-61.11l-4.26,-4.26c-16.85,-16.86 -44.26,-16.86 -61.1,0l-18.44,18.44l7.23,7.23l18.44,-18.44Z"/>
  <path fill="#fff" d="M130.79,210.57l-18.44,18.44c-12.86,12.86 -33.78,12.86 -46.64,0l-4.26,-4.26c-12.86,-12.86 -12.86,-33.78 0,-46.64l18.45,-18.44l-7.24,-7.23l-18.44,18.45c-16.86,16.85 -16.86,44.26 0,61.11l4.26,4.26c16.85,16.85 44.26,16.85 61.1,0.01l18.44,-18.44l-0.01,-0.01l-7.23,-7.23Z"/>
  <path fill="#fff" d="M229.08,224.75l-4.26,4.27c-12.86,12.86 -33.78,12.86 -46.63,0l-25.67,-25.68l50.9,-50.91l25.67,25.68c12.86,12.87 12.86,33.78 0,46.64M87.14,137.96l-25.68,-25.68c-12.85,-12.86 -12.85,-33.78 0,-46.64l4.26,-4.26c12.87,-12.86 33.78,-12.86 46.64,0l25.68,25.67l-50.9,50.91ZM236.31,170.88l-25.68,-25.69l-65.36,-65.36l-25.68,-25.67c-16.84,-16.85 -44.25,-16.85 -61.1,0l-4.26,4.26c-16.86,16.85 -16.86,44.27 0,61.11l25.67,25.67l65.36,65.38l25.67,25.68c16.84,16.85 44.26,16.85 61.11,-0.01l4.26,-4.26c16.85,-16.85 16.85,-44.26 0,-61.11"/>
  <path fill="#fff" d="M121.51,93.92c1.88,-1.88 1.88,-4.93 0,-6.82c-1.88,-1.88 -4.93,-1.88 -6.81,0c-1.88,1.88 -1.88,4.93 0,6.82c1.88,1.88 4.94,1.88 6.81,0"/>
  <path fill="#fff" d="M87.18,59.58c-1.89,1.88 -1.89,4.94 0,6.82c1.89,1.88 4.94,1.88 6.82,0c1.88,-1.88 1.88,-4.93 0,-6.82c-1.88,-1.88 -4.93,-1.88 -6.82,0"/>
  <path fill="#fff" d="M87.18,114.62c-1.89,1.88 -1.89,4.94 0,6.82c1.89,1.88 4.94,1.88 6.82,0c1.88,-1.88 1.88,-4.93 0,-6.82c-1.88,-1.88 -4.93,-1.88 -6.82,0"/>
  <path fill="#fff" d="M59.66,87.11c-1.89,1.88 -1.89,4.93 0,6.82c1.88,1.88 4.94,1.88 6.82,0c1.88,-1.88 1.88,-4.93 0,-6.82c-1.88,-1.88 -4.94,-1.88 -6.82,0"/>
  <path fill="#fff" d="M93.94,93.99c1.88,-1.88 1.88,-4.94 0,-6.82c-1.89,-1.88 -4.94,-1.88 -6.82,0c-1.88,1.88 -1.88,4.94 0,6.82c1.88,1.88 4.93,1.88 6.82,0"/>
  <path fill="#fff" d="M230.88,196.47c-1.88,-1.88 -4.94,-1.88 -6.82,0c-1.89,1.88 -1.89,4.94 0,6.82c1.88,1.88 4.93,1.88 6.82,0c1.88,-1.88 1.89,-4.94 0,-6.82"/>
  <path fill="#fff" d="M196.53,168.94c-1.88,1.88 -1.88,4.94 0,6.82c1.88,1.89 4.93,1.89 6.82,0c1.89,-1.88 1.89,-4.93 0,-6.82c-1.88,-1.88 -4.93,-1.88 -6.82,0"/>
  <path fill="#fff" d="M196.53,224c-1.88,1.88 -1.88,4.93 0,6.81c1.88,1.88 4.93,1.88 6.82,0c1.89,-1.88 1.89,-4.93 0,-6.81c-1.88,-1.89 -4.93,-1.89 -6.82,0"/>
  <path fill="#fff" d="M169.01,196.47c-1.88,1.88 -1.88,4.94 0,6.82c1.89,1.88 4.93,1.88 6.82,0c1.88,-1.88 1.88,-4.94 0,-6.82c-1.89,-1.88 -4.93,-1.88 -6.82,0"/>
  <path fill="#fff" d="M203.29,203.35c1.88,-1.88 1.88,-4.94 0,-6.82c-1.88,-1.89 -4.93,-1.89 -6.82,0c-1.88,1.87 -1.88,4.93 0,6.82c1.89,1.88 4.94,1.88 6.82,0"/>
</svg>

