<svg id="problem" xmlns="http://www.w3.org/2000/svg" viewBox="0 0 292 292">
  <path id="background" fill="#a154a1" d="M145.63,0c-80.43,0 -145.63,65.2 -145.63,145.63c0,80.43 65.2,145.64 145.63,145.64c80.43,0 145.63,-65.21 145.63,-145.64c0,-80.43 -65.2,-145.63 -145.63,-145.63"/>
  <path fill="#fff" d="M255.86,145.51l-59.15,0l0,-59.17l-50.28,0l0,59.17l-59.17,0l0,50.29l59.17,0l0,59.15l50.28,0l0,-59.15l59.15,0l0,-50.29Z"/>
  <path fill="#fff" d="M106.17,21.07l-18.11,31.87l-35.37,-11.72l9.19,36.12l-33.17,15.85l32.18,18.93l-12.74,36.64l29.72,-12.86l-19.5,3.14l11.51,-30.58l-24.34,-14.36l25.12,-13.03l-7.39,-29.37l28.85,9.79l13.73,-25.71l13.06,27.38l31.18,-9.73l-4.48,20.11l14.34,-29.12l-36.92,9.79l-16.86,-33.16Z"/>
  <path fill="#fff" d="M95.58,69.15l3.06,40.67l12.94,0l3.07,-40.67l-19.07,0Z"/>
  <path fill="#fff" d="M105.11,114.84c-4.38,0 -7.93,3.55 -7.93,7.93c0,4.38 3.55,7.93 7.93,7.93c4.37,0 7.92,-3.55 7.92,-7.93c0,-4.38 -3.55,-7.93 -7.92,-7.93"/>
</svg>