<svg width="61" height="61" viewBox="0 0 61 61" fill="none" xmlns="http://www.w3.org/2000/svg">
<rect width="61" height="61" rx="30.5" fill="url(#paint0_linear_442_18145)"/>
<rect x="13.4351" y="27.1606" width="34.9317" height="21.5924" rx="1.15159" fill="white"/>
<rect x="13.4351" y="27.1606" width="34.9317" height="21.5924" rx="1.15159" fill="black" fill-opacity="0.1"/>
<rect x="10.4146" y="21.2227" width="40.9725" height="25.3264" rx="1.35074" fill="white"/>
<rect x="10.4146" y="21.2227" width="40.9725" height="25.3264" rx="1.35074" fill="black" fill-opacity="0.06"/>
<rect x="7" y="14" width="47.8013" height="29.5475" rx="1.57587" fill="white"/>
<g clip-path="url(#clip0_442_18145)">
<path d="M19 29.5C19.5967 29.5 20.169 29.2629 20.591 28.841C21.0129 28.419 21.25 27.8467 21.25 27.25C21.25 26.6533 21.0129 26.081 20.591 25.659C20.169 25.2371 19.5967 25 19 25C18.4033 25 17.831 25.2371 17.409 25.659C16.9871 26.081 16.75 26.6533 16.75 27.25C16.75 27.8467 16.9871 28.419 17.409 28.841C17.831 29.2629 18.4033 29.5 19 29.5ZM19 35C20.775 35 22.3688 34.2281 23.4688 33.0062C22.7781 31.8062 21.4812 31 20 31H18C16.5187 31 15.2219 31.8062 14.5312 33.0062C15.6313 34.2312 17.225 35 19 35Z" fill="#6DB7FF"/>
<path opacity="0.4" d="M23.4688 33.0063C22.7781 31.8063 21.4812 31 20 31H18C16.5188 31 15.2219 31.8063 14.5312 33.0063C15.6312 34.2313 17.225 35 19 35C20.775 35 22.3687 34.2281 23.4688 33.0063ZM11 29C11 26.8783 11.8429 24.8434 13.3431 23.3431C14.8434 21.8429 16.8783 21 19 21C21.1217 21 23.1566 21.8429 24.6569 23.3431C26.1571 24.8434 27 26.8783 27 29C27 31.1217 26.1571 33.1566 24.6569 34.6569C23.1566 36.1571 21.1217 37 19 37C16.8783 37 14.8434 36.1571 13.3431 34.6569C11.8429 33.1566 11 31.1217 11 29ZM19 29.5C19.5967 29.5 20.169 29.2629 20.591 28.841C21.0129 28.419 21.25 27.8467 21.25 27.25C21.25 26.6533 21.0129 26.081 20.591 25.659C20.169 25.2371 19.5967 25 19 25C18.4033 25 17.831 25.2371 17.409 25.659C16.9871 26.081 16.75 26.6533 16.75 27.25C16.75 27.8467 16.9871 28.419 17.409 28.841C17.831 29.2629 18.4033 29.5 19 29.5Z" fill="#6DB7FF"/>
</g>
<rect x="31" y="22" width="18" height="3" rx="1.5" fill="#CDCDCD"/>
<rect x="31" y="28" width="18" height="3" rx="1.5" fill="#CDCDCD"/>
<rect x="31" y="34" width="18" height="3" rx="1.5" fill="#CDCDCD"/>
<defs>
<linearGradient id="paint0_linear_442_18145" x1="30.5" y1="0" x2="30.5" y2="61" gradientUnits="userSpaceOnUse">
<stop stop-color="#E2CFFA"/>
<stop offset="1" stop-color="#FCCCC7"/>
</linearGradient>
<clipPath id="clip0_442_18145">
<rect width="16" height="16" fill="white" transform="translate(11 21)"/>
</clipPath>
</defs>
</svg>
