<svg width="16" height="20" viewBox="0 0 16 20" fill="none" xmlns="http://www.w3.org/2000/svg">
<g clip-path="url(#clip0_442_17948)">
<path d="M4.88672 0C3.84375 0 3 0.84375 3 1.88672V2.5625C1.57422 2.85156 0.5 4.11328 0.5 5.625V14.375C0.5 15.8867 1.57422 17.1484 3 17.4375V18.125C3 19.1602 3.83984 20 4.875 20H11.125C12.1602 20 13 19.1602 13 18.125V17.4375C14.4258 17.1484 15.5 15.8867 15.5 14.375V5.625C15.5 4.11328 14.4258 2.85156 13 2.5625V1.88672C13 0.84375 12.1563 0 11.1133 0H4.88672ZM12.375 4.375C13.0664 4.375 13.625 4.93359 13.625 5.625V14.375C13.625 15.0664 13.0664 15.625 12.375 15.625H3.625C2.93359 15.625 2.375 15.0664 2.375 14.375V5.625C2.375 4.93359 2.93359 4.375 3.625 4.375H12.375ZM4.16016 8.85938C4.16016 9.42188 4.38672 9.96484 4.79297 10.3594L7.5625 13.0547C7.80469 13.2891 8.19141 13.2891 8.43359 13.0547L11.2031 10.3594C11.6094 9.96484 11.8359 9.42578 11.8359 8.85938C11.8359 7.70703 10.9023 6.76953 9.74609 6.76953H9.6875C9.12891 6.76953 8.58984 6.98828 8.1875 7.37891L7.99609 7.56641L7.80469 7.37891C7.40234 6.98828 6.86719 6.76953 6.30469 6.76953H6.24609C5.09375 6.76953 4.15625 7.70312 4.15625 8.85938H4.16016Z" fill="white"/>
</g>
<defs>
<clipPath id="clip0_442_17948">
<rect width="15" height="20" fill="white" transform="translate(0.5)"/>
</clipPath>
</defs>
</svg>
